<svg id="Layer_1" data-name="Layer 1" xmlns="http://www.w3.org/2000/svg" viewBox="0 0 1432 796.6"><rect width="1432" height="796.6" style="fill:#fff"/><path d="M136,44.06c163.7-.3,327.1-1.5,461.3-.5m.6.2c-2.4,188.5-1.7,377.6-.5,743.5m.8-.6c-127.2-.3-252.2,0-461.7.4m0-.6c2.2-163.2,3.3-327.1.4-742" style="fill:none;stroke:#000;stroke-width:1.5px;stroke-dasharray:12,8"/><path d="M86.23,81.6c506.9-3,1015.9-3.6,1335.8-.5m.4,1.9c-1.4,57.7-.2,116.2-2.3,164.1m1.5.8c-304.2-.5-608.1-1.2-1335.4-1.4m.3.4c-1.6-44.3-3.6-90.5-2-166.2" style="fill:none;stroke:#364fc7;stroke-width:1.5px;stroke-dasharray:3,6"/><path d="M86.73,263.69c381.5,1,761,1.8,1334.8.3m.5.2c-2.5,137.3-2.1,275.3-.1,512.8m-.6-1.4c-527-2-1053.6-1.4-1334.1.8m-.4.3c.8-137.2.6-273.3,0-512.5" style="fill:none;stroke:#087f5b;stroke-width:1.5px;stroke-dasharray:3,6"/><text transform="translate(20.75 175.12)" style="isolation:isolate;font-size:20px;fill:#364fc7;font-family:ArialMT, Arial">apps</text><text transform="translate(26.71 547.86)" style="isolation:isolate;font-size:20px;fill:#087f5b;font-family:ArialMT, Arial">libs</text><text transform="translate(302 30.14)" style="isolation:isolate;font-size:20px;font-family:ArialMT, Arial">context:domain-a</text><text transform="translate(973.64 29)" style="isolation:isolate;font-size:20px;font-family:ArialMT, Arial">context:core</text><path d="M374.21,111.9c70.8,2,143.3,1.8,204.9,2.9m-203.3-1.6c42.9.8,84.7.6,205.5.5m-.2.4c-.4,26.7.5,52.5-2.1,104.4m1-104.8c.7,32.2.8,66.1.7,107.1m1.1-1.5c-59.9.7-117,2-206.1-.6m205.9,1.4c-48.3,1.9-94.7,2.6-205.2-.6m.2.4c.1-37.7-.3-73.6-.1-104.8M376,220.3c-1.2-23.4-.9-45.2-.8-107.5" style="fill:none;stroke:#5c940d;stroke-width:2px"/><text transform="translate(440.01 175.78)" style="isolation:isolate;font-size:20px;fill:#5c940d;font-family:ArialMT, Arial">app-one</text><text transform="translate(376.86 105.29)" style="isolation:isolate;font-size:16px;fill:#495057;font-family:ArialMT, Arial">apps/domain-a/</text><path d="M376.9,312.36c45.2,0,92.3,1.4,204.3-.2m-.6-.3c1.8,170.2,3.2,339.4.5,447.7m-1.1-.1c-57-1.5-118.3-1.4-203.7.2m2.1-2c-3-142.9-1.5-287.6-.4-445.6" style="fill:none;stroke:#5c940d;stroke-width:2.5px;stroke-dasharray:3,6"/><text transform="translate(376.29 300.43)" style="isolation:isolate;font-size:16px;fill:#495057;font-family:ArialMT, Arial">libs/domain-a/app-one/</text><path d="M390.17,329.76c38.3-2.1,73.9-3.8,177.2-2m-177.3,1.1c49,1,97.7,1.2,179.5-.4m.7-.8c-.3,16.1-2.2,34.4-3.1,56.3m1.6-55.3c1.2,15.5,1.2,30.7.7,57.7m-.7.3c-55.8-3.9-115.1-4.7-177.4.6m176.8-2.1c-56.6-.5-112.8-1-177.2,0m-1.1-.9c-1.1-16.8,1.5-35.9,1.3-55.7m-1,57.3c.3-16.1.5-31.8,1.3-56.8" style="fill:none;stroke:#5c940d;stroke-width:2px"/><text transform="translate(425.43 363.86)" style="isolation:isolate;font-size:20px;fill:#5c940d;font-family:ArialMT, Arial">feature-a</text><path d="M390.07,398.5c42.5-.5,83.9-2.1,175.7-.9m-177.4,2.5c52.6,0,106.9.7,178.3-.7m-1.7,2c1.2,17.5,3,33.2,1.4,56.6m0-57.6c1.3,13.6.7,28.8-.4,57m-.2-.8c-45.9-.8-90.9-.5-178.8-1.3m180,2.3c-60.8-1.9-123-.8-178.5-1.9m-.3.7c2.2-11.3-1.3-21-1.2-58.2m1,57.8c1.7-21.6,1.4-42.6,1.2-56.7" style="fill:none;stroke:#5c940d;stroke-width:2px"/><text transform="translate(422.86 434.43)" style="isolation:isolate;font-size:20px;fill:#5c940d;font-family:ArialMT, Arial">feature-b</text><path d="M390.79,473.93c50.2,1.1,100.1,1.1,175.7,2.8m-178-1.7c40.9-1.4,81-2.3,178.6-.7m1.1.5c.7,16.4.5,34.7.7,55.5m-1.2-54.5c-.6,17.3,0,35.4.4,56.4m.3-1.6c-49.5,1.1-97.6,1.9-178.7,3m177.1-2.1c-70.4,0-140.4.7-178.1-.3m2,2.6c-1.9-17.4.5-32.8-2.3-58.3m1.1,56.9c-1.2-18.2-.9-36.8.3-58" style="fill:none;stroke:#5c940d;stroke-width:2px"/><text transform="translate(423 509.29)" style="isolation:isolate;font-size:20px;fill:#5c940d;font-family:ArialMT, Arial">ui-widget-a</text><path d="M391.83,542.29c45.2-1.7,96.2-.7,178.1.9m-178.3-1.4c63.7,1.7,128.8,2.3,177.8,0m.1-.3c-.5,17.6-1.8,32.6.8,58.1m-1.3-58.1c-.5,11.9-.5,24.8,1.6,57.1m-2.4.4c-58.2.5-115.5.1-175.2,1.7m175.9-1.1c-40,.7-79.9.8-177.8-.6m.6.3c1.5-23.6-.4-43.9-1.1-55.9m1.2,54.7c0-12.4-.8-25.8-.1-55.7" style="fill:none;stroke:#5c940d;stroke-width:2px"/><text transform="translate(403.43 579)" style="isolation:isolate;font-size:20px;fill:#5c940d;font-family:ArialMT, Arial">data-access-a</text><path d="M859.57,120.09c95.3.9,186.1,1.4,246.9-1.7m-245.1,1.7c94-.1,190,1,244-1.4m1.6.1c-3.7,31.1-4.1,62.5-.5,107.1m.1-106.2c.5,22.8-.7,44-1,106.8m1.2.7c-92.6-2.2-186-2.9-247.8-1.2m245.9.8c-68.6,1.7-138.3,1.5-245.1-1.2m1,1.5c1.9-32.2,1.1-59.4-1.8-107.8m2.2,106.2c-.5-33.4-.5-67.8-.8-105.8" style="fill:none;stroke:#5f3dc4;stroke-width:2px"/><text transform="translate(920.72 180.98)" style="isolation:isolate;font-size:20px;fill:#5f3dc4;font-family:ArialMT, Arial">ui-showcase</text><text transform="translate(861.71 111.75)" style="isolation:isolate;font-size:16px;fill:#495057;font-family:ArialMT, Arial">apps/core/</text><path d="M640.93,310.52c49.6-2.3,96.8-.3,200.4-3.2m2,2.4c-.1,158.8.2,318.7-.4,445.7m-1.5,0c-44.9,2.8-93.6.5-201.6,1m.3-1.4c-2.1-145.1-3-290.8-1.2-446.9" style="fill:none;stroke:#000;stroke-width:2.5px;stroke-dasharray:3,6"/><text transform="translate(637.71 297.46)" style="isolation:isolate;font-size:16px;fill:#495057;font-family:ArialMT, Arial">libs/core/public/</text><text transform="translate(388.29 744.14)" style="isolation:isolate;font-size:20px;font-family:ArialMT, Arial">scope:domain-a</text><text transform="translate(667.5 746.36)" style="isolation:isolate;font-size:20px;font-family:ArialMT, Arial">scope:public</text><path d="M155.77,313.75c43.2-1.4,88-.8,203.7-2.2m-3.2,2.4c4.8,65.9,2.9,134.5.3,202.2m2.7.4c-56.3-.6-110,0-203.9,0m.7-2.7c-3.9-55.9-4.2-110.5-2.8-201" style="fill:none;stroke:#000;stroke-width:2.5px;stroke-dasharray:3,6"/><text transform="translate(152.29 301.32)" style="isolation:isolate;font-size:16px;fill:#495057;font-family:ArialMT, Arial">libs/domain-a/public/</text><path d="M155.17,556.11c57.7-1.1,120.6-3.3,203-.4m-2.5-2.2c2.5,49.8,2.6,102.7,2.6,202.4m-1.7,2.5c-78.3-1.8-157.8-2.5-204-.4m-.6-2.9c.3-75.8,1-149.7,2.4-198.7" style="fill:none;stroke:#000;stroke-width:2.5px;stroke-dasharray:3,6"/><text transform="translate(151.29 543.18)" style="isolation:isolate;font-size:16px;fill:#495057;font-family:ArialMT, Arial">libs/domain-a/shared/</text><path d="M862,551.28c126,1.4,250.7,1.7,529.5,1.1m.8-2.4c-2,61.8-2.9,123.2-.8,205.9m-.1-.9c-205.4.7-412.2-.7-528.9-.2m.7,1.1c-1.4-41.4-.1-85.2-1.2-205.7" style="fill:none;stroke:#000;stroke-width:2.5px;stroke-dasharray:3,6"/><text transform="translate(859.71 540.32)" style="isolation:isolate;font-size:16px;fill:#495057;font-family:ArialMT, Arial">libs/core/shared/</text><path d="M865.36,311.65c95.3-1.9,193.3-1.5,255.1,1.7m-1-2.9c2.2,60.6,3.1,120.1,2.3,203.4m.2,1.2c-76.8-1.9-149.1-2-257.1-1.2m-1.6-.8c.3-40.9,1.2-87.2,1.8-201" style="fill:none;stroke:#5f3dc4;stroke-width:2.5px;stroke-dasharray:3,6"/><text transform="translate(860.86 300.32)" style="isolation:isolate;font-size:16px;fill:#495057;font-family:ArialMT, Arial">libs/core/ui-showcase/</text><text transform="translate(885.64 502.5)" style="isolation:isolate;font-size:16px;font-family:ArialMT, Arial">scope:comp-showcase</text><path d="M653.71,323.51c36,2.3,72.7,3.8,176.5,2.5m-176.9-.5c68-1.2,137-1.3,179.6.7m-2.2.7c2.7,19-.1,42.1,2.5,54.4m-1.2-56.9c.5,22.7.4,45.3-.8,58.2m-.8-1.2c-52.1-.6-105,0-178,2.8m180.3-1.2c-54.3.5-109,1.6-178.6.1m.2.7c-.3-17.1-1.8-28.3.7-60.5m-1.8,58.3c.1-12.7.9-24.7-.2-55.8" style="fill:none;stroke:#5f3dc4;stroke-width:2px"/><text transform="translate(698.71 435.21)" style="isolation:isolate;font-size:20px;fill:#5f3dc4;font-family:ArialMT, Arial">ui-button</text><path d="M654.1,397.36c53.5-1,106-.7,177.6-.6m-177.7.4c59.3,2,117.9,1.8,179-.5m.9.5a363,363,0,0,0,.1,57.1m-1.4-56.7c1.3,18.7,0,36.2.4,56.8m1.1.3c-44.5.2-89-1.3-178.5-2.1m177.6,1.9c-67.1.8-135-.5-178.8.9m2.4.1c-3.4-23.2-3.2-46.8-3.2-56.8m2,55.8c-1-14.8.5-31.3-1-57.7" style="fill:none;stroke:#5f3dc4;stroke-width:2px"/><text transform="translate(677.89 364.71)" style="isolation:isolate;font-size:20px;fill:#5f3dc4;font-family:ArialMT, Arial">ui-datepicker</text><path d="M656.54,468.87c61.4-2.4,122.5-.9,178.5-1.5m-179.6-1.2c64.3,2.4,130.2,2.6,178.9,1.2m-1.8-1.9c-1,16.9,1.2,33.3.1,56.8m-.1-55.8c1.2,15.4,1.5,30.3,1.3,57.6m-2.2-1.2c-56.2-.5-116.8,1.7-177.9.8m180.2.6c-45.4-.8-90.7-.7-179.6-.5m-.8,1.3c3.2-17.1,2.8-36,3.6-56.2m-2.5,55.9c1.8-23.8.3-45.1-.2-58.6" style="fill:none;stroke:#5f3dc4;stroke-width:2px"/><text transform="translate(699.99 503.43)" style="isolation:isolate;font-size:20px;fill:#5f3dc4;font-family:ArialMT, Arial">string-util</text><path d="M655.34,540.29c55.9.8,116.3,1.7,178.6-1.4m-179,1.5c47.1-1.4,94.2-.5,177-.7m-.7,1.4c-.7,12,.3,25.2,2.7,55.2m-2.5-56.3c.8,13.1,1.4,24.6.6,56.9m1.7-.6c-54.2,2-102.2.6-181.5.8m180-1c-53.1-.9-107.8-1.2-178.6.8m-1.2.4c1.5-13.7,1.9-28.9.6-58m1.5,58.4c.6-15.3,1-29-1.3-58.4" style="fill:none;stroke:#5f3dc4;stroke-width:2px"/><text transform="translate(679.17 575.86)" style="isolation:isolate;font-size:16px;fill:#5f3dc4;font-family:ArialMT, Arial">data-access-user</text><path d="M567.14,362.07c14.5-.4,72.4-1.9,86.9-2.3m-86.9,2.3c14.5-.4,72.4-1.9,86.9-2.3" style="fill:none;stroke:#5c940d;stroke-width:2px"/><path d="M626,370.77c5.9-2.3,11.8-4.6,27.9-11m-27.9,11c8.5-3.4,17-6.7,27.9-11" style="fill:none;stroke:#5c940d;stroke-width:2px"/><path d="M625.54,350.27l28.5,9.5m-28.5-9.5c8.7,2.9,17.3,5.8,28.5,9.5" style="fill:none;stroke:#5c940d;stroke-width:2px"/><path d="M570,512.36c12.6-22.5,62.9-112.4,75.4-134.9M570,512.36c12.6-22.5,62.9-112.4,75.4-134.9" style="fill:none;stroke:#5c940d;stroke-width:2px"/><path d="M640.6,407.16c1.5-9,2.9-18,4.8-29.6m-4.8,29.6c1.7-10.7,3.5-21.5,4.8-29.6" style="fill:none;stroke:#5c940d;stroke-width:2px"/><path d="M622.7,397.06c6.9-6,13.8-11.9,22.7-19.6m-22.7,19.6c8.2-7.1,16.5-14.2,22.7-19.6" style="fill:none;stroke:#5c940d;stroke-width:2px"/><path d="M568.29,364.36c13.9,23.6,69.5,118.1,83.4,141.7m-83.4-141.7c13.9,23.6,69.5,118.1,83.4,141.7" style="fill:none;stroke:#5c940d;stroke-width:2px"/><path d="M628.59,487c5.7,4.7,11.3,9.3,23.1,19.1M628.59,487c6.6,5.4,13.1,10.8,23.1,19.1" style="fill:none;stroke:#5c940d;stroke-width:2px"/><path d="M646.29,476.56c1.3,7.2,2.7,14.4,5.5,29.5m-5.5-29.5c1.6,8.4,3.1,16.8,5.5,29.5" style="fill:none;stroke:#5c940d;stroke-width:2px"/><path d="M570.57,582.64l85.7-11.4m-85.7,11.4,85.7-11.4" style="fill:none;stroke:#5c940d;stroke-width:2px"/><path d="M629.67,585.14c5.5-2.9,11.1-5.8,26.6-13.9m-26.6,13.9c10.4-5.5,20.8-10.9,26.6-13.9" style="fill:none;stroke:#5c940d;stroke-width:2px"/><path d="M627,564.74c6.1,1.3,12.2,2.7,29.3,6.4m-29.3-6.4,29.3,6.4" style="fill:none;stroke:#5c940d;stroke-width:2px"/><path d="M880.07,328.83c78.1-1.5,155.5-1.6,227.3-2.2m-228.6,2c54.7-.7,109-1,227.3-.9m-1.2-1c1.7,24.8.1,46.7-.8,59.6m2.4-58.5c.4,19.2-.4,40-.4,58.2m-.2-.6c-64.9-.8-130.3.8-226.3-.7m226.4,1c-82.9-1.6-167.7-.6-227.5,0m1.7.6c-2.2-20.2-1.8-37,.1-58.3m-1.5,56.4c-1-21.8-1.1-43-.2-57.1" style="fill:none;stroke:#5f3dc4;stroke-width:2px"/><text transform="translate(898.71 368.07)" style="isolation:isolate;font-size:16px;fill:#5f3dc4;font-family:ArialMT, Arial">feature-datepicker-demo</text><path d="M554,220.66c.4,17.8,2.1,89.2,2.6,107m-2.6-107c.4,17.8,2.1,89.2,2.6,107" style="fill:none;stroke:#5c940d;stroke-width:2px"/><path d="M544.47,301.06c3.4,7.6,6.9,15.2,12.1,26.6m-12.1-26.6c3.9,8.5,7.7,17,12.1,26.6" style="fill:none;stroke:#5c940d;stroke-width:2px"/><path d="M567.37,300.66c-3.1,7.7-6.2,15.4-10.8,27m10.8-27c-3.5,8.6-6.9,17.2-10.8,27" style="fill:none;stroke:#5c940d;stroke-width:2px"/><path d="M954.57,230.64c-2.4,16.4-11.9,81.9-14.3,98.3m14.3-98.3c-2.4,16.4-11.9,81.9-14.3,98.3" style="fill:none;stroke:#5f3dc4;stroke-width:2px"/><path d="M934.17,299.54c1.8,8.6,3.6,17.3,6.1,29.4m-6.1-29.4c1.4,7,2.9,13.9,6.1,29.4" style="fill:none;stroke:#5f3dc4;stroke-width:2px"/><path d="M954.47,302.54c-4.2,7.8-8.4,15.6-14.2,26.4m14.2-26.4c-3.4,6.3-6.7,12.5-14.2,26.4" style="fill:none;stroke:#5f3dc4;stroke-width:2px"/><path d="M165.17,569c51.4-1.4,105.4-.3,179.7-1.3m-177.8.4c47.7-1.1,96.3-.3,177.1,1.2m-.9-.6c.4,20.8-.6,38.7,2.3,55.2m-1.5-55c-.3,16,.9,32.7-.1,56m-.9.8c-54.5,1.7-113.6-.7-175,1.3m176.8-1.9c-40-1-79.1-.4-178.8,1.5m2,.1c-2.5-20.5-2.7-39.9-3.3-58.7m2.5,57c-1.1-17.4.3-35.1-.8-56.9" style="fill:none;stroke:#5c940d;stroke-width:2px"/><text transform="translate(182 604.57)" style="isolation:isolate;font-size:20px;fill:#5c940d;font-family:ArialMT, Arial">ui-widget-b</text><path d="M388.29,427.21c.1.2,7.7-22.5.6,1.1s-36.2,117.1-43.4,140.6m42.8-141.7c.1.2,7.7-22.5.6,1.1s-36.2,117.1-43.4,140.6" style="fill:none;stroke:#5c940d;stroke-width:2px"/><path d="M344,538.91c.5,10.8,1,21.5,1.5,30m-1.5-30c.5,10.4,1,20.8,1.5,30" style="fill:none;stroke:#5c940d;stroke-width:2px"/><path d="M363.59,545c-6.5,8.6-13,17.1-18.1,23.9m18.1-23.9c-6.3,8.3-12.6,16.6-18.1,23.9" style="fill:none;stroke:#5c940d;stroke-width:2px"/><path d="M878,360.93c-7.7-.2-38.6-1-46.3-1.1m46.3,1.1c-7.7-.2-38.6-1-46.3-1.1" style="fill:none;stroke:#5f3dc4;stroke-width:2px"/><path d="M853.7,352.43c-4.5,1.5-9.1,3.1-21.9,7.4m21.9-7.4c-6.9,2.3-13.7,4.6-22,7.4" style="fill:none;stroke:#5f3dc4;stroke-width:2px"/><path d="M853.3,368.23c-4.5-1.8-8.9-3.5-21.6-8.5m21.6,8.5c-6.8-2.6-13.5-5.3-21.6-8.4" style="fill:none;stroke:#5f3dc4;stroke-width:2px"/><text transform="translate(173.36 500.93)" style="isolation:isolate;font-size:20px;font-family:ArialMT, Arial">scope:public</text><path d="M615,46.64c312.1,2.3,624.3,1.4,795.4-.3m-.1.6c2.1,238.8,2,480.1-.6,739.1m-.4,1.1c-191.4-1.9-382.7-2.2-793.6.1m-1-.8c1.5-176.9,1.4-354,.1-739.6" style="fill:none;stroke:#000;stroke-width:1.5px;stroke-dasharray:12,8"/><path d="M1153.41,121.56c69.8-1.5,138.3-.7,226-1.7m-225,1c46.8,2.3,93.9,2,225.1.8m-1.9.8c.9,35,1,69.6,2.4,106.6m-1.3-107.4c1.8,35.6,2.3,71.1-.1,106.5m.9-1.5c-84.6,3.2-166.1,2.6-224.6,3m224.9-.9c-83.2-1.4-165.9-1.6-225.7-1.4m-1.4,1c1-42.9.1-82.8,2.9-106.4m-2.6,106.5c.9-32-.3-62.3-.2-106.9" style="fill:none;stroke:#5f3dc4;stroke-width:2px"/><text transform="translate(1201.32 179.98)" style="isolation:isolate;font-size:20px;fill:#5f3dc4;font-family:ArialMT, Arial">utils-showcase</text><path d="M1143.86,313.85c68.7.6,132.8,2.6,247.7.8m.4.5c1.7,46.3.4,88.1,0,203m-.6-2.4c-96.2-1.4-194.8-.4-244.9.7m-.4,1c1.7-79.4,1.4-158.8-1.9-202.7" style="fill:none;stroke:#5f3dc4;stroke-width:2.5px;stroke-dasharray:3,6"/><text transform="translate(1142.68 301.61)" style="isolation:isolate;font-size:16px;fill:#495057;font-family:ArialMT, Arial">libs/core/util-showcase-app/</text><text transform="translate(1221.15 504)" style="isolation:isolate;font-size:16px;font-family:ArialMT, Arial">scope:utils-showcase</text><path d="M1154.69,327.24c54.2-.7,105.4-1.3,224,1m-221.6.4c59.8-1.6,122.3-.6,222-.5m-2.1.1c.8,16,.6,29.5.3,57.3m1.4-56.2c-.2,19.5-.1,40.4-.5,56.9m2.1,0c-84.7-.3-167.8,1.9-223,.4m220.6-1.4c-62.6,2.1-127.2,1.5-221.8,1.3m-1.1-.9c.3-22.5-.5-42.7.8-58.9m1.5,59.9c-1.1-17.9-.2-37.1-.8-57.9" style="fill:none;stroke:#5f3dc4;stroke-width:2px"/><text transform="translate(1182.17 364.71)" style="isolation:isolate;font-size:16px;fill:#5f3dc4;font-family:ArialMT, Arial">feature-string-utils-demo</text><path d="M878.8,405.6c49.4,1.9,101,1.9,225.4,1m-225.4-1.1c46,1.5,92.1,1.1,226-.5m2.2.9c-.9,19-2.4,40.9-.6,54.8m-.9-55.4c-.3,22-.5,46,.1,57.5M1104,461c-86,2-175.3,1.9-227.2.3m229.1.8c-79.2,1.6-158.5.4-228,1.4m1-.3c-1.3-14,.5-29.4-2-59.5m1.8,58.2c.6-19.4-.6-40.2-1.4-57.3" style="fill:none;stroke:#5f3dc4;stroke-width:2px"/><text transform="translate(912.86 439.86)" style="isolation:isolate;font-size:16px;fill:#5f3dc4;font-family:ArialMT, Arial">feature-button-demo</text><path d="M885.14,437.21h-55.4m55.4,0h-55.4" style="fill:none;stroke:#5f3dc4;stroke-width:2px"/><path d="M855.74,427.71c-8.5,3.1-17.1,6.2-26,9.5m26-9.5c-7.2,2.6-14.3,5.2-26,9.5" style="fill:none;stroke:#5f3dc4;stroke-width:2px"/><path d="M855.74,446.71c-8.5-3.1-17.1-6.2-26-9.5m26,9.5c-7.2-2.6-14.3-5.2-26-9.5" style="fill:none;stroke:#5f3dc4;stroke-width:2px"/><path d="M987.43,384.07c.2,3.8,1,19,1.1,22.9m-1.1-22.9c.2,3.8,1,19,1.1,22.9" style="fill:none;stroke:#5f3dc4;stroke-width:2px"/><path d="M984.13,396.37c1.2,2.9,2.5,5.9,4.4,10.5m-4.4-10.5c1,2.4,2,4.7,4.4,10.5" style="fill:none;stroke:#5f3dc4;stroke-width:2px"/><path d="M991.93,396c-.9,3.1-1.9,6.1-3.4,11m3.4-11c-.7,2.5-1.5,4.9-3.4,11" style="fill:none;stroke:#5f3dc4;stroke-width:2px"/><path d="M885.36,586.27c149.6-2.2,297.7-1.3,485.5-.3m-485.2-.2c152-1.7,303.2-1.2,485.4.7m-1.9-1.4a305.91,305.91,0,0,1,1.7,56.9m-.5-56.5c1.4,21-.1,41.7,1.4,58.4m-.6-1.4c-193,2.9-385.4,2-484.6.5m484.4.2c-170.3.9-340.7.9-485.3.1m.4-1.9c-1.6-13,1.1-28.6-1-53.9m.5,56c-.2-10.9-.2-23-.3-57.4" style="fill:none;stroke:#5f3dc4;stroke-width:2px"/><text transform="translate(1027.57 626.14)" style="isolation:isolate;font-size:20px;fill:#5f3dc4;font-family:ArialMT, Arial">ui-example-sources</text><path d="M884.93,664.59c147.6-1.3,294.7-.6,483.5-.3m-482.9.4c170.7-1.7,340.7-1.9,482.5.4m.6.1c-2.6,14.9-2,35,0,58.5m-.4-58.2c.3,14.4-1.1,29.5-.1,56.5m-.1-.5c-148.3-.3-295.4.1-482,.6m482.1-.2c-191.9.6-383.3.6-482.7.4m-1.6-.7a475.87,475.87,0,0,1,3.4-57.6m-1.6,58.3c-.1-16.2,0-30.7-.2-57.3" style="fill:none;stroke:#5f3dc4;stroke-width:2px"/><text transform="translate(1023.71 698)" style="isolation:isolate;font-size:20px;fill:#5f3dc4;font-family:ArialMT, Arial">ui-showcase-search</text><path d="M1272.43,386.36c-19.8,33.6-99,168.1-118.9,201.7m118.9-201.7c-19.8,33.6-99,168.1-118.9,201.7" style="fill:none;stroke:#5f3dc4;stroke-width:2px"/><path d="M1159,558.56c-1.3,7.1-2.6,14.2-5.5,29.5m5.5-29.5c-1.8,9.9-3.7,19.7-5.5,29.5" style="fill:none;stroke:#5f3dc4;stroke-width:2px"/><path d="M1176.73,569c-5.6,4.6-11.2,9.2-23.2,19.1m23.2-19.1c-7.7,6.4-15.5,12.8-23.2,19.1" style="fill:none;stroke:#5f3dc4;stroke-width:2px"/><path d="M1109,360.64c4.2,37.4,21,187.1,25.1,224.6M1109,360.64c4.2,37.4,21,187.1,25.1,224.6" style="fill:none;stroke:#5f3dc4;stroke-width:2px"/><path d="M1120.8,558.34c4.2,8.4,8.3,16.7,13.3,26.9m-13.3-26.9c4.4,8.8,8.8,17.7,13.3,26.9" style="fill:none;stroke:#5f3dc4;stroke-width:2px"/><path d="M1141.2,556c-2.2,9.1-4.4,18.2-7.1,29.2m7.1-29.2c-2.3,9.6-4.6,19.2-7.1,29.2" style="fill:none;stroke:#5f3dc4;stroke-width:2px"/><path d="M1266.71,229.21v95.4m0-95.4v95.4" style="fill:none;stroke:#5f3dc4;stroke-width:2px"/><path d="M1256.41,296.41c3.8,10.4,7.6,20.7,10.3,28.2m-10.3-28.2c3,8.2,5.9,16.3,10.3,28.2" style="fill:none;stroke:#5f3dc4;stroke-width:2px"/><path d="M1277,296.41c-3.8,10.4-7.6,20.7-10.3,28.2m10.3-28.2c-3,8.2-6,16.4-10.3,28.2" style="fill:none;stroke:#5f3dc4;stroke-width:2px"/></svg>